<?xml version="1.0"?>
<svg xmlns="http://www.w3.org/2000/svg" xmlns:xlink="http://www.w3.org/1999/xlink" xmlns:svgjs="http://svgjs.com/svgjs" version="1.1" width="512" height="512" x="0" y="0" viewBox="0 0 512 512" style="enable-background:new 0 0 512 512" xml:space="preserve" class=""><g>
<circle xmlns="http://www.w3.org/2000/svg" style="" cx="256" cy="256" r="256" fill="#000224" data-original="#ff7058" class=""/>
<circle xmlns="http://www.w3.org/2000/svg" style="" cx="256" cy="256" r="194.133" fill="#f2f2f2" data-original="#f2f2f2" class=""/>
<path xmlns="http://www.w3.org/2000/svg" style="" d="M256,83.2c103.467,0,187.733,81.067,194.133,183.467c0-3.2,1.067-7.467,1.067-10.667  c0-107.733-87.467-194.133-194.133-194.133c-108.8,0-195.2,86.4-195.2,194.133c0,3.2,0,7.467,1.067,10.667  C68.267,164.267,152.533,83.2,256,83.2z" fill="#e4eaef" data-original="#e4eaef" class=""/>
<g xmlns="http://www.w3.org/2000/svg">
	<circle style="" cx="256" cy="97.067" r="11.733" fill="#acb3ba" data-original="#acb3ba" class=""/>
	<circle style="" cx="256" cy="414.933" r="11.733" fill="#acb3ba" data-original="#acb3ba" class=""/>
	<circle style="" cx="414.933" cy="256" r="11.733" fill="#acb3ba" data-original="#acb3ba" class=""/>
	<circle style="" cx="107.733" cy="266.667" r="11.733" fill="#acb3ba" data-original="#acb3ba" class=""/>
</g>
<path xmlns="http://www.w3.org/2000/svg" style="" d="M256,269.867c-3.2,0-7.467-1.067-9.6-4.267l-74.667-82.133c-5.333-5.333-4.267-13.867,1.067-19.2  c5.333-5.333,13.867-4.267,19.2,1.067l74.667,82.133c5.333,5.333,4.267,13.867-1.067,19.2C262.4,267.733,259.2,269.867,256,269.867z  " fill="#000224" data-original="#ff7058" class=""/>
<g xmlns="http://www.w3.org/2000/svg">
	<path style="" d="M247.467,263.467V361.6c0,4.267,3.2,8.533,8.533,8.533c5.333,0,8.533-3.2,8.533-8.533v-98.133   H247.467z" fill="#1f3d52" data-original="#40596b" class=""/>
	<path style="" d="M174.933,339.2c-1.067,0-1.067,0-2.133-1.067c-1.067-1.067-1.067-3.2,0-4.267l86.4-86.4   c1.067-1.067,3.2-1.067,4.267,0c1.067,1.067,1.067,3.2,0,4.267l-86.4,86.4C176,339.2,176,339.2,174.933,339.2z" fill="#1f3d52" data-original="#40596b" class=""/>
	<circle style="" cx="256" cy="256" r="34.133" fill="#1f3d52" data-original="#40596b" class=""/>
</g>
<circle xmlns="http://www.w3.org/2000/svg" style="" cx="256" cy="256" r="12.8" fill="#ffffff" data-original="#ffffff" class=""/>
<g xmlns="http://www.w3.org/2000/svg">
</g>
<g xmlns="http://www.w3.org/2000/svg">
</g>
<g xmlns="http://www.w3.org/2000/svg">
</g>
<g xmlns="http://www.w3.org/2000/svg">
</g>
<g xmlns="http://www.w3.org/2000/svg">
</g>
<g xmlns="http://www.w3.org/2000/svg">
</g>
<g xmlns="http://www.w3.org/2000/svg">
</g>
<g xmlns="http://www.w3.org/2000/svg">
</g>
<g xmlns="http://www.w3.org/2000/svg">
</g>
<g xmlns="http://www.w3.org/2000/svg">
</g>
<g xmlns="http://www.w3.org/2000/svg">
</g>
<g xmlns="http://www.w3.org/2000/svg">
</g>
<g xmlns="http://www.w3.org/2000/svg">
</g>
<g xmlns="http://www.w3.org/2000/svg">
</g>
<g xmlns="http://www.w3.org/2000/svg">
</g>
</g></svg>
